<?xml version="1.0" encoding="UTF-8" standalone="no"?>
<!-- Created with Inkscape (http://www.inkscape.org/) -->

<svg
   xmlns:dc="http://purl.org/dc/elements/1.1/"
   xmlns:cc="http://creativecommons.org/ns#"
   xmlns:rdf="http://www.w3.org/1999/02/22-rdf-syntax-ns#"
   xmlns:svg="http://www.w3.org/2000/svg"
   xmlns="http://www.w3.org/2000/svg"
   xmlns:sodipodi="http://sodipodi.sourceforge.net/DTD/sodipodi-0.dtd"
   xmlns:inkscape="http://www.inkscape.org/namespaces/inkscape"
   width="210mm"
   height="210mm"
   viewBox="0 0 210 210"
   version="1.1"
   id="svg8"
   inkscape:version="0.92.3 (2405546, 2018-03-11)"
   sodipodi:docname="logo.svg"
   inkscape:export-filename="/home/alynne/Downloads/eletronica_girls/v2.png"
   inkscape:export-xdpi="96"
   inkscape:export-ydpi="96">
  <defs
     id="defs2" />
  <sodipodi:namedview
     id="base"
     pagecolor="#ffffff"
     bordercolor="#666666"
     borderopacity="1.0"
     inkscape:pageopacity="0.0"
     inkscape:pageshadow="2"
     inkscape:zoom="0.49497475"
     inkscape:cx="-93.553969"
     inkscape:cy="331.73776"
     inkscape:document-units="mm"
     inkscape:current-layer="layer1"
     showgrid="false"
     inkscape:window-width="1315"
     inkscape:window-height="713"
     inkscape:window-x="51"
     inkscape:window-y="27"
     inkscape:window-maximized="1" />
  <metadata
     id="metadata5">
    <rdf:RDF>
      <cc:Work
         rdf:about="">
        <dc:format>image/svg+xml</dc:format>
        <dc:type
           rdf:resource="http://purl.org/dc/dcmitype/StillImage" />
        <dc:title />
      </cc:Work>
    </rdf:RDF>
  </metadata>
  <g
     inkscape:label="Layer 1"
     inkscape:groupmode="layer"
     id="layer1"
     transform="translate(0,-87)">
    <rect
       style="fill:#74276b;fill-opacity:1;fill-rule:evenodd;stroke-width:0.26458332"
       id="rect31"
       width="210.06641"
       height="210.129"
       x="-0.033203125"
       y="86.998795" />
    <g
       id="g895"
       transform="translate(-6.1445128,4.810849)"
       style="fill:#ffd5d5;fill-opacity:1">
      <g
         style="stroke-width:1.23757875;fill:#ffd5d5;fill-opacity:1"
         transform="matrix(0.80802937,0,0,0.80802937,12.045434,29.968326)"
         id="g874">
        <flowRoot
           xml:space="preserve"
           id="flowRoot838-3"
           style="font-style:normal;font-weight:normal;font-size:40px;line-height:1.25;font-family:sans-serif;letter-spacing:0px;word-spacing:0px;fill:#ffd5d5;fill-opacity:1;stroke:none;stroke-width:0.29296306"
           transform="matrix(1.1176929,0,0,1.1176929,-99.732959,71.34973)"><flowRegion
             id="flowRegion840-6"
             style="fill:#ffd5d5;stroke-width:0.29296306;fill-opacity:1"><rect
               id="rect842-7"
               width="797.14282"
               height="325.71429"
               x="108.57143"
               y="67.986519"
               style="fill:#ffd5d5;stroke-width:0.29296306;fill-opacity:1" /></flowRegion><flowPara
             id="flowPara846-5"
             style="font-style:normal;font-variant:normal;font-weight:normal;font-stretch:normal;font-size:96px;font-family:'Good Creame';-inkscape-font-specification:'Good Creame';fill:#ffd5d5;stroke-width:0.08222461;fill-opacity:1">G rls</flowPara></flowRoot>        <path
           style="fill:#ffd5d5;stroke-width:0.33027396;fill-opacity:1"
           inkscape:connector-curvature="0"
           id="XMLID_639_"
           d="m 108.98263,182.52583 c -0.46707,-0.47642 -1.23191,-0.48389 -1.70815,-0.0167 l -9.609283,9.42159 c -0.39991,-0.35578 -0.81382,-0.69656 -1.24206,-1.02045 -0.9185,-0.6948 -2.32459,-1.58296 -3.92218,-1.2754 -3.18834,0.61385 -4.49007,4.31098 -4.91775,5.5259 -0.0804,0.22844 -0.294,0.71111 -0.294,0.71111 l -5.846716,5.8315 c 0,0 -1.464319,0.62305 -2.196959,0.90249 -2.20831,0.84225 -4.338671,2.85397 -4.459622,5.33907 -8.16e-4,0.0143 -0.0014,0.0305 -0.0022,0.0458 -0.05081,1.31411 0.549362,2.44844 1.005225,3.18745 0.326622,0.5293 0.691977,1.033 1.089704,1.50915 l -8.065885,7.91894 c -0.476002,0.46739 -0.483087,1.23214 -0.01572,1.70815 0.236514,0.24089 0.549034,0.36166 0.861964,0.36166 0.305363,0 0.611046,-0.11507 0.846188,-0.34596 l 8.085944,-7.93881 c 0.568284,0.46996 1.17538,0.89346 1.816622,1.26171 1.621105,0.93082 3.416066,1.19672 5.065755,0.19605 1.34296,-0.81464 2.38604,-2.13963 3.08284,-3.53076 0.44251,-0.88356 0.49879,-1.93993 1.22,-2.66331 0.45731,-0.45866 5.58355,-5.58385 5.58355,-5.58385 0.31187,-0.10363 0.78119,-0.25915 0.78119,-0.25915 2.17989,-0.72314 6.131783,-3.01187 5.484823,-6.49816 -0.13294,-0.71678 -0.49122,-1.36037 -0.89925,-1.95514 -0.12026,-0.17533 -1.335953,-1.73641 -1.355933,-1.71695 l 9.594873,-9.40742 c 0.47623,-0.46713 0.48381,-1.23189 0.0167,-1.7083 z m -16.025083,9.48116 c 0.48904,-0.0941 1.14558,0.17747 2.0082,0.82991 1.39465,1.05485 2.62343,2.30673 3.65201,3.72087 0.2866,0.39402 0.5616,0.81167 0.63303,1.19657 0.10876,0.58634 -0.13819,1.16548 -0.58125,1.69397 l -6.85903,-6.859 c 0.36036,-0.31062 0.7419,-0.50437 1.14704,-0.58232 z m -5.32538,7.10497 4.63751,4.63292 -1.97357,1.97356 -4.66288,-4.66279 c 0.75044,-0.71225 1.42727,-1.36553 1.99894,-1.94369 z m -0.59212,10.38196 c -0.17901,0.53944 -0.27758,0.83675 -0.33194,1.01826 l -0.005,-8.3e-4 c -0.51682,1.55811 -2.091624,3.46839 -3.347373,3.59629 -0.457077,0.0464 -1.011427,-0.12791 -1.744551,-0.5489 -1.534455,-0.88104 -2.836669,-2.14269 -3.765879,-3.64848 -0.460859,-0.74686 -0.666445,-1.327 -0.64712,-1.82539 0.05185,-1.33979 1.932824,-2.95197 3.580019,-3.49844 l 1.016504,-0.33717 c 0.50861,-0.16865 0.977763,-0.45819 1.356486,-0.83698 0.171603,-0.17152 0.423417,-0.41258 0.724262,-0.69723 l 4.712642,4.71264 -0.71081,0.71084 c -0.37897,0.37871 -0.6683,0.84779 -0.83701,1.35624 z m 6.94801,-7.44721 -4.75017,-4.74552 c 0.0764,-0.10958 0.98325,-2.29011 1.17345,-2.69475 l 6.32473,6.32472 c -0.45578,0.24368 -2.64501,1.03881 -2.74801,1.11555 z" />
      </g>
      <g
         transform="translate(4.805479,9.6217029)"
         id="g881"
         style="fill:#ffd5d5;fill-opacity:1">
        <path
           style="fill:#ffd5d5;stroke-width:0.28212523;fill-opacity:1"
           inkscape:connector-curvature="0"
           d="m 139.06166,146.21156 c 0.1934,-0.18331 0.19347,-0.48005 4e-5,-0.66346 6e-5,1e-4 -4e-5,-3e-5 -4e-5,-3e-5 -0.0935,-0.0886 -0.2177,-0.13742 -0.3499,-0.13742 -0.44262,0 -0.65869,0.50823 -0.34991,0.80088 0.19294,0.1829 0.50688,0.18293 0.69981,3e-5 z m 0.86321,-1.48176 c 0.1031,0.0977 0.10307,0.25615 0,0.35385 -0.1031,0.0977 -0.27017,0.0977 -0.37324,0 -0.46416,-0.44002 -1.21542,-0.44011 -1.67965,-1e-5 -0.10309,0.0977 -0.2702,0.0977 -0.37327,1e-5 -0.10307,-0.0977 -0.1031,-0.25611 0,-0.35382 0.67036,-0.63558 1.7556,-0.63571 2.42616,-3e-5 z m 0.79319,-0.50169 c -0.0676,0 -0.1351,-0.0244 -0.18664,-0.0733 -1.00565,-0.95341 -2.63347,-0.95356 -3.6393,0 -0.10306,0.0977 -0.27016,0.0977 -0.37323,0 -0.1031,-0.0977 -0.1031,-0.25611 0,-0.35385 1.21205,-1.14902 3.17368,-1.14905 4.38581,0 0.16677,0.15813 0.0464,0.42713 -0.18664,0.42713 z m -1.11819,2.89017 c -0.14408,0.0209 -0.24296,0.14869 -0.22081,0.28526 0.63003,3.89119 -2.47265,7.38549 -6.5512,7.5318 v -6.28119 h 3.47903 c -0.0797,2.272 -1.2281,3.93741 -2.1973,4.94652 -0.15492,0.16129 -0.0319,0.41866 0.19509,0.41866 0.0717,0 0.14314,-0.0276 0.19523,-0.0818 1.03213,-1.0746 2.2558,-2.85164 2.3353,-5.28342 h 1.27135 c 0.14575,0 0.26393,-0.11203 0.26393,-0.25021 0,-0.13817 -0.11818,-0.25021 -0.26393,-0.25021 h -1.2715 c -0.10453,-3.24015 -2.22205,-5.32619 -3.38597,-6.23237 0.87211,0.10677 1.71759,0.37033 2.48366,0.77779 0.12715,0.0677 0.28802,0.0248 0.35935,-0.0958 0.0714,-0.12051 0.0261,-0.273 -0.10106,-0.34062 -1.10189,-0.58608 -2.35614,-0.89587 -3.62712,-0.89587 -4.10277,0 -7.42318,3.14735 -7.42318,7.03707 0,3.88862 3.31916,7.0366 7.42229,7.03707 4.54199,0 8.03144,-3.82992 7.33776,-8.11337 -0.0221,-0.13662 -0.15691,-0.23044 -0.30092,-0.20936 z m -7.29988,7.59385 c -0.38976,-0.27811 -1.00919,-0.77321 -1.61786,-1.48095 -1.17933,-1.37126 -1.80445,-2.91 -1.8612,-4.57706 h 3.47906 z m 2.14694,-11.135 c 1.17867,1.37129 1.80337,2.90988 1.86002,4.5766 h -3.47909 v -6.05916 c 0.3896,0.278 1.00985,0.77374 1.61907,1.48256 z m -2.14694,-1.70459 v 6.28119 h -3.47896 c 0.0772,-2.19705 1.15762,-3.82231 2.06968,-4.81116 0.0959,-0.10402 0.0848,-0.26209 -0.025,-0.35304 -0.10977,-0.091 -0.27648,-0.0803 -0.37245,0.0237 -0.97174,1.05355 -2.12349,2.78846 -2.20059,5.14054 h -2.61857 c 0.13595,-3.40573 3.03324,-6.15235 6.62583,-6.2812 z m -6.62583,6.78161 h 2.61863 c 0.10478,3.24146 2.22392,5.32734 3.3882,6.23303 -3.30116,-0.40174 -5.87879,-3.02521 -6.00683,-6.23303 z"
           id="path2" />
        <flowRoot
           xml:space="preserve"
           id="flowRoot838"
           style="font-style:normal;font-weight:normal;font-size:40px;line-height:1.25;font-family:sans-serif;letter-spacing:0px;word-spacing:0px;fill:#ffd5d5;fill-opacity:1;stroke:none;stroke-width:0.85256141"
           transform="matrix(0.31033932,0,0,0.31033932,37.000638,101.48612)"><flowRegion
             id="flowRegion840"
             style="fill:#ffd5d5;stroke-width:0.85256141;fill-opacity:1"><rect
               id="rect842"
               width="797.14282"
               height="325.71429"
               x="108.57143"
               y="67.986519"
               style="fill:#ffd5d5;stroke-width:0.85256141;fill-opacity:1" /></flowRegion><flowPara
             id="flowPara846"
             style="font-style:normal;font-variant:normal;font-weight:normal;font-stretch:normal;font-size:96px;font-family:'Fragment Core';-inkscape-font-specification:'Fragment Core';fill:#ffd5d5;stroke-width:0.85256141;fill-opacity:1">Eletr^nica</flowPara></flowRoot>      </g>
    </g>
  </g>
</svg>
